# xmcd
#
# Track frame offsets: 
#        150
#        13472
#        27215
#        40157
#        52222
#        61822
#        75827
#        90905
#        102747
#        116662
#        129832
#        143475
#        156345
#        168152
#        181307
#
# Disc length: 2589 seconds
#
# Revision: 1
# Processed by: cddbd v1.5.2PL0 Copyright (c) Steve Scherf et al.
# Submitted via: ExactAudioCopy v0.99pb5
#
DISCID=ba0a1b0f
DTITLE=Brenda Holloway - The Very Best Of Brenda Holloway
DYEAR=1999
DGENRE=Ballad
TTITLE0=Every Little Bit Hurts
TTITLE1=Land Of A Thousand Boys
TTITLE2=I'll Always Love You
TTITLE3=Sad Song
TTITLE4=When I'm Gone
TTITLE5=I've Been Good To You
TTITLE6=Operator
TTITLE7=I'll Be Available
TTITLE8=You've Changed Me
TTITLE9=You Can Cry On My Shoulder
TTITLE10=Together 'Til The End Of Time
TTITLE11=Hurt A Little Everyday
TTITLE12=Till Jhonny Comes
TTITLE13=Just Look What You've Done
TTITLE14=You've Made Me So Very Happy
EXTD=
EXTT0=
EXTT1=
EXTT2=
EXTT3=
EXTT4=
EXTT5=
EXTT6=
EXTT7=
EXTT8=
EXTT9=
EXTT10=
EXTT11=
EXTT12=
EXTT13=
EXTT14=
PLAYORDER=
